<svg class="viv-svg-1">
  <clipPath id="viv-clip-path" clipPathUnits="objectBoundingBox"><path d="M0.6,0.999 C0.566,0.997,0.535,0.989,0.506,0.976 C0.503,0.975,0.501,0.974,0.501,0.974 C0.501,0.974,0.498,0.975,0.495,0.976 C0.487,0.98,0.474,0.985,0.464,0.988 C0.416,1,0.365,1,0.316,0.992 C0.286,0.985,0.262,0.975,0.237,0.96 L0.234,0.959,0.229,0.961 C0.203,0.972,0.176,0.98,0.151,0.982 C0.14,0.984,0.123,0.984,0.114,0.982 C0.082,0.978,0.053,0.964,0.033,0.941 C0.011,0.916,0,0.884,0.003,0.851 C0.004,0.846,0.004,0.84,0.005,0.839 C0.005,0.837,0.006,0.834,0.006,0.832 C0.007,0.826,0.011,0.813,0.015,0.805 L0.019,0.797,0.018,0.766 C0.018,0.749,0.018,0.68,0.017,0.614 C0.016,0.483,0.017,0.365,0.019,0.166 L0.02,0.068,0.017,0.063 C0.016,0.061,0.014,0.057,0.013,0.054 C0.011,0.05,0.011,0.049,0.011,0.041 C0.011,0.031,0.012,0.028,0.017,0.02 C0.023,0.012,0.03,0.008,0.041,0.004 C0.05,0.001,0.056,0,0.068,0 C0.076,0,0.08,0,0.083,0.001 C0.102,0.004,0.118,0.011,0.131,0.022 L0.135,0.026,0.225,0.026 C0.482,0.027,0.602,0.027,0.728,0.027 L0.867,0.027,0.871,0.024 C0.889,0.008,0.911,0.001,0.936,0.002 C0.948,0.002,0.957,0.004,0.965,0.008 C0.988,0.018,0.994,0.042,0.981,0.063 L0.978,0.067,0.979,0.148 C0.98,0.389,0.985,0.791,0.988,0.798 C0.988,0.799,0.99,0.803,0.991,0.807 C1,0.826,1,0.848,1,0.868 C1,0.918,0.966,0.961,0.917,0.978 C0.892,0.986,0.866,0.987,0.834,0.982 C0.815,0.979,0.795,0.972,0.776,0.964 L0.767,0.96,0.763,0.963 C0.729,0.984,0.684,0.997,0.64,1 C0.63,1,0.609,1,0.6,0.999"></path></clipPath>
</svg>