<svg id="b99bd56c-6512-4442-83a5-5b53d5b5fcd0" data-name="glyph" xmlns="http://www.w3.org/2000/svg" viewBox="0 0 396 396"><title>Viv Frame</title>
<path fill="#241f21" d="M53.36,48.43V36.13c1.71-.91,1.9-3.31,1.9-3.4a4.90871,4.90871,0,0,0-2.1-4.71V15.37c3.02-3.02,2.13-5.88,1.31-7.34-3.26481-5.245-8.66912-3.061-10.37987-.74991A3.00326,3.00326,0,0,1,39.15,7.18991C37.32645,4.316,34.16688,3.77294,32,5.51018c-2.18767-1.72665-5.32324-1.21989-7.16991,1.73A3.01776,3.01776,0,0,1,23.66,8.26a3.0909,3.0909,0,0,1-3.74-.96c-.03-.03995-2.75-3.51-6.77-2.24A6.39729,6.39729,0,0,0,9.53,8.03c-.82,1.46-1.71,4.32,1.31,7.34V28.02A4.9147,4.9147,0,0,0,8.73,32.71c.01.1.2,2.51,1.91,3.42v12.3c-.66.8-3.42,4.51-.99,7.94,2.47542,3.1544,6.75153,3.483,10.44.33016A4.21814,4.21814,0,0,1,22.58,55.37a2.379,2.379,0,0,1,2.11,1.4,5.26133,5.26133,0,0,0,1.88,2.03A4.67559,4.67559,0,0,0,32,58.45a4.79785,4.79785,0,0,0,7.31-1.68008,2.42883,2.42883,0,0,1,2.13-1.4,4.35829,4.35829,0,0,1,2.51,1.36,7.5405,7.5405,0,0,0,4.96,2.13,6.22168,6.22168,0,0,0,5.44-2.49C56.78,52.94,54.02,49.23,53.36,48.43Zm-5.95,2.31H16.59V13.26H47.41Z"/></svg>