<svg version="1.0" xmlns="http://www.w3.org/2000/svg"
 width="360px" height="416px" viewBox="0 0 360.000000 416.000000"
>

<g transform="translate(0.000000,3197.000000) scale(0.100000,-0.100000)"
fill="#000000" stroke="none">
<path d="M14395 23335 c-533 -59 -1031 -236 -1493 -532 -45 -29 -85 -53 -87
-53 -2 0 -42 24 -88 54 -136 88 -332 191 -492 260 -762 326 -1583 363 -2356
106 -475 -158 -866 -385 -1260 -731 l-47 -40 -86 55 c-402 260 -837 432 -1241
492 -165 24 -444 24 -580 0 -517 -93 -971 -424 -1295 -947 -355 -571 -523
-1307 -474 -2074 7 -115 18 -241 24 -280 5 -38 15 -104 21 -145 20 -143 89
-437 147 -626 l59 -189 -8 -715 c-4 -393 -13 -1966 -20 -3495 -14 -3000 -7
-5706 27 -10276 l17 -2255 -42 -102 c-22 -56 -53 -150 -69 -209 -25 -100 -27
-123 -27 -308 0 -239 14 -305 100 -480 86 -175 197 -287 369 -370 143 -70 239
-89 436 -90 127 0 184 4 245 19 302 70 553 232 750 484 l70 89 1440 7 c4082
20 5991 26 8002 26 l2212 0 58 -72 c285 -359 631 -531 1033 -515 195 8 336 50
472 141 352 233 458 774 246 1266 l-41 95 6 1870 c19 5523 106 14762 141
14905 7 30 34 125 59 210 131 448 194 952 176 1410 -45 1153 -579 2139 -1366
2521 -387 187 -812 216 -1313 89 -299 -75 -621 -218 -931 -411 l-128 -80 -73
63 c-544 473 -1251 776 -1953 837 -160 14 -491 12 -640 -4z"/>
</g>
<style>
  path {
    -webkit-transform: scale(.01);
    -ms-transform: scale(.01);
    transform: scale(.01);
  }</style>
</svg>
